<svg xmlns="http://www.w3.org/2000/svg" xmlns:xlink="http://www.w3.org/1999/xlink" width="65" height="81" viewBox="0 0 65 81">
  <defs>
    <ellipse id="b" cx="31.5" cy="30.5" rx="31.5" ry="30.5"/>
    <filter id="a" width="144.4%" height="145.9%" x="-22.2%" y="-18%" filterUnits="objectBoundingBox">
      <feMorphology radius="2" operator="dilate" in="SourceAlpha" result="shadowSpreadOuter1"/>
      <feOffset dy="3" in="shadowSpreadOuter1" result="shadowOffsetOuter1"/>
      <feMorphology radius="2.5" in="SourceAlpha" result="shadowInner"/>
      <feOffset dy="3" in="shadowInner" result="shadowInner"/>
      <feComposite in="shadowOffsetOuter1" in2="shadowInner" operator="out" result="shadowOffsetOuter1"/>
      <feGaussianBlur stdDeviation="2.5" in="shadowOffsetOuter1" result="shadowBlurOuter1"/>
      <feColorMatrix values="0 0 0 0 0.282370545 0 0 0 0 0.46464433 0 0 0 0 0.979724702 0 0 0 0.637596241 0" in="shadowBlurOuter1"/>
    </filter>
    <linearGradient id="c" x1="50%" x2="50%" y1="0%" y2="100%">
      <stop stop-color="#2BBCFF" offset="0%"/>
      <stop stop-color="#6083FF" offset="100%"/>
    </linearGradient>
    <linearGradient id="d" x1="31.325%" x2="97.962%" y1="45.744%" y2="50%">
      <stop stop-color="#89AAFF" offset="0%"/>
      <stop stop-color="#EBF1FD" offset="100%"/>
    </linearGradient>
    <linearGradient id="e" x1="50%" x2="50%" y1="20.152%" y2="100%">
      <stop stop-color="#FFFFFF" offset="0%"/>
      <stop stop-color="#FFFFFF" stop-opacity=".772" offset="30.889%"/>
      <stop stop-color="#FFFFFF" stop-opacity=".438" offset="100%"/>
    </linearGradient>
  </defs>
  <g fill="none" fill-rule="evenodd" transform="translate(1 1)">
    <g opacity=".507">
      <use fill="black" filter="url(#a)" xlink:href="#b"/>
      <use stroke="#4B9FFE" xlink:href="#b"/>
    </g>
    <ellipse cx="31" cy="33" fill="url(#c)" opacity=".581" rx="31" ry="30"/>
    <ellipse cx="32" cy="31.5" fill="url(#c)" rx="27" ry="26.5"/>
    <rect width="58" height="3" y="77" fill="url(#d)" rx="1.5"/>
    <path fill="url(#e)" d="M28,30 L36,30 L36,27.4285714 C36,25.5401786 34.203125,24 32,24 C29.796875,24 28,25.5401786 28,27.4285714 L28,30 Z M40,31.4545455 L40,39.6363636 C40,40.3892045 39.3654514,41 38.5833333,41 L24.4166667,41 C23.6345486,41 23,40.3892045 23,39.6363636 L23,31.4545455 C23,30.7017045 23.6345486,30.0909091 24.4166667,30.0909091 L24.8888889,30.0909091 L24.8888889,27.3636364 C24.8888889,23.8693182 27.8697917,21 31.5,21 C35.1302083,21 38.1111111,23.8693182 38.1111111,27.3636364 L38.1111111,30.0909091 L38.5833333,30.0909091 C39.3654514,30.0909091 40,30.7017045 40,31.4545455 Z"/>
  </g>
</svg>