<svg xmlns="http://www.w3.org/2000/svg" width="65" height="81" viewBox="0 0 65 81" xmlns:xlink="http://www.w3.org/1999/xlink">
  <defs>
    <filter id="a" width="181%" height="177.8%" x="-40.5%" y="-29.4%" filterUnits="objectBoundingBox">
      <feOffset dy="5" in="SourceAlpha" result="shadowOffsetOuter1"/>
      <feGaussianBlur stdDeviation="6" in="shadowOffsetOuter1" result="shadowBlurOuter1"/>
      <feColorMatrix values="0 0 0 0 0 0 0 0 0 0 0 0 0 0 0 0 0 0 0.238507699 0" in="shadowBlurOuter1" result="shadowMatrixOuter1"/>
      <feMerge>
        <feMergeNode in="shadowMatrixOuter1"/>
        <feMergeNode in="SourceGraphic"/>
      </feMerge>
    </filter>
    <ellipse id="c" cx="31.5" cy="30.5" rx="31.5" ry="30.5"/>
    <filter id="b" width="123.8%" height="124.6%" x="-11.9%" y="-9%" filterUnits="objectBoundingBox">
      <feMorphology radius=".5" operator="dilate" in="SourceAlpha" result="shadowSpreadOuter1"/>
      <feOffset dy="2" in="shadowSpreadOuter1" result="shadowOffsetOuter1"/>
      <feMorphology radius="1" in="SourceAlpha" result="shadowInner"/>
      <feOffset dy="2" in="shadowInner" result="shadowInner"/>
      <feComposite in="shadowOffsetOuter1" in2="shadowInner" operator="out" result="shadowOffsetOuter1"/>
      <feGaussianBlur stdDeviation="2" in="shadowOffsetOuter1" result="shadowBlurOuter1"/>
      <feColorMatrix values="0 0 0 0 0.563772798 0 0 0 0 0.0729238763 0 0 0 0 0.995067894 0 0 0 1 0" in="shadowBlurOuter1"/>
    </filter>
    <linearGradient id="d" x1="64.734%" x2="64.734%" y1="100%" y2="0%">
      <stop stop-color="#3023AE" offset="0%"/>
      <stop stop-color="#C86DD7" offset="100%"/>
    </linearGradient>
    <linearGradient id="e" x1="50%" x2="50%" y1="20.152%" y2="100%">
      <stop stop-color="#FFFFFF" offset="0%"/>
      <stop stop-color="#FFFFFF" stop-opacity=".772" offset="30.889%"/>
      <stop stop-color="#FFFFFF" stop-opacity=".438" offset="100%"/>
    </linearGradient>
    <linearGradient id="f" x1="31.325%" x2="97.962%" y1="45.744%" y2="50%">
      <stop stop-color="#5837B8" offset="0%"/>
      <stop stop-color="#EBF1FD" offset="100%"/>
    </linearGradient>
  </defs>
  <g fill="none" fill-rule="evenodd" transform="translate(1 1)">
    <g filter="url(#a)">
      <g opacity=".507">
        <use fill="black" filter="url(#b)" xlink:href="#c"/>
        <use stroke="#9013FE" xlink:href="#c"/>
      </g>
      <ellipse cx="31" cy="33" fill="url(#d)" opacity=".477" rx="31" ry="30"/>
      <ellipse cx="32" cy="31.5" fill="url(#d)" rx="27" ry="26.5"/>
      <path fill="url(#e)" d="M28.5,23 C23.8958333,23 20,25.5945946 20,28.6609337 C20,30.2825553 21.0920139,31.8452088 22.9809028,32.9361179 L24.4123264,33.7616708 L23.8958333,35 C24.2057292,34.8230958 24.515625,34.6314496 24.8107639,34.4250614 L25.4600694,33.968059 L26.2421875,34.1154791 C26.9800347,34.2481572 27.7326389,34.3218673 28.5,34.3218673 C33.1041667,34.3218673 37,31.7272727 37,28.6609337 C37,25.5945946 33.1041667,23 28.5,23 Z M28.5,21 C34.3018466,21 39,24.3793403 39,28.5555556 C39,32.7317708 34.3018466,36.1111111 28.5,36.1111111 C27.5901989,36.1111111 26.7102273,36.0225694 25.875,35.875 C24.6370739,36.7456597 23.2350852,37.3802083 21.7286932,37.7638889 C21.3259943,37.8671875 20.8934659,37.9409722 20.4460227,38 L20.4012784,38 C20.1775568,38 19.96875,37.8229167 19.9240057,37.5720486 C19.8643466,37.2916667 20.0582386,37.1145833 20.2223011,36.9227431 C20.8039773,36.2734375 21.4602273,35.6979167 21.9673295,34.4730903 C19.5511364,33.0859375 18,30.9461806 18,28.5555556 C18,24.3793403 22.6981534,21 28.5,21 Z M40.9285714,38.3487523 C41.4489796,39.6156824 42.122449,40.2109869 42.7193878,40.8826124 C42.8877551,41.0810473 43.0867347,41.2642179 43.0255102,41.554238 C42.9642857,41.828994 42.7346939,42.0274288 42.4897959,41.9969004 C42.0306122,41.9358435 41.5867347,41.8595224 41.1734694,41.7526729 C39.627551,41.3558032 38.1887755,40.6994418 36.9183673,39.798853 C36.0612245,39.9514952 35.1581633,40.0430805 34.2244898,40.0430805 C31.4540816,40.0430805 28.9132653,39.2798696 27,38.0282037 C27.4438776,38.0587321 27.9030612,38.0892606 28.3469388,38.0892606 C31.6377551,38.0892606 34.744898,37.1428791 37.1173469,35.4332867 C39.6734694,33.5710521 41.0816327,31.0524561 41.0816327,28.3201611 C41.0816327,27.5264218 40.9591837,26.7479467 40.7295918,26 C43.3163265,27.4195723 45,29.6786765 45,32.2278009 C45,34.7158684 43.4081633,36.9139158 40.9285714,38.3487523 Z"/>
    </g>
    <rect width="58" height="3" y="77" fill="url(#f)" rx="1.5"/>
  </g>
</svg>
