<svg xmlns="http://www.w3.org/2000/svg" width="65" height="81" viewBox="0 0 65 81" xmlns:xlink="http://www.w3.org/1999/xlink">
  <defs>
    <filter id="a" width="181%" height="177.8%" x="-40.5%" y="-29.4%" filterUnits="objectBoundingBox">
      <feOffset dy="5" in="SourceAlpha" result="shadowOffsetOuter1"/>
      <feGaussianBlur stdDeviation="6" in="shadowOffsetOuter1" result="shadowBlurOuter1"/>
      <feColorMatrix values="0 0 0 0 0 0 0 0 0 0 0 0 0 0 0 0 0 0 0.238507699 0" in="shadowBlurOuter1" result="shadowMatrixOuter1"/>
      <feMerge>
        <feMergeNode in="shadowMatrixOuter1"/>
        <feMergeNode in="SourceGraphic"/>
      </feMerge>
    </filter>
    <ellipse id="c" cx="31.5" cy="30.5" rx="31.5" ry="30.5"/>
    <filter id="b" width="123.8%" height="124.6%" x="-11.9%" y="-9%" filterUnits="objectBoundingBox">
      <feMorphology radius=".5" operator="dilate" in="SourceAlpha" result="shadowSpreadOuter1"/>
      <feOffset dy="2" in="shadowSpreadOuter1" result="shadowOffsetOuter1"/>
      <feMorphology radius="1" in="SourceAlpha" result="shadowInner"/>
      <feOffset dy="2" in="shadowInner" result="shadowInner"/>
      <feComposite in="shadowOffsetOuter1" in2="shadowInner" operator="out" result="shadowOffsetOuter1"/>
      <feGaussianBlur stdDeviation="2" in="shadowOffsetOuter1" result="shadowBlurOuter1"/>
      <feColorMatrix values="0 0 0 0 0.960784314 0 0 0 0 0.650980392 0 0 0 0 0.137254902 0 0 0 1 0" in="shadowBlurOuter1"/>
    </filter>
    <linearGradient id="d" x1="85.785%" x2="10.87%" y1="40.534%" y2="100%">
      <stop stop-color="#F7CE68" offset="0%"/>
      <stop stop-color="#FBAB7E" stop-opacity=".904" offset="100%"/>
    </linearGradient>
    <linearGradient id="e" x1="31.325%" x2="93.802%" y1="45.744%" y2="49.734%">
      <stop stop-color="#FAB77E" offset="0%"/>
      <stop stop-color="#FFF9E6" offset="100%"/>
    </linearGradient>
    <linearGradient id="f" x1="50%" x2="50%" y1="20.152%" y2="119.241%">
      <stop stop-color="#FFFFFF" offset="0%"/>
      <stop stop-color="#FFFFFF" stop-opacity=".772" offset="30.889%"/>
      <stop stop-color="#FFFFFF" stop-opacity=".438" offset="100%"/>
    </linearGradient>
  </defs>
  <g fill="none" fill-rule="evenodd" transform="translate(1 1)">
    <g filter="url(#a)">
      <g opacity=".507">
        <use fill="black" filter="url(#b)" xlink:href="#c"/>
        <use stroke="#F5A623" xlink:href="#c"/>
      </g>
      <ellipse cx="31" cy="33" fill="url(#d)" opacity=".477" rx="31" ry="30"/>
      <ellipse cx="32" cy="31.5" fill="url(#d)" rx="27" ry="26.5"/>
    </g>
    <rect width="58" height="3" y="77" fill="url(#e)" rx="1.5"/>
    <path fill="url(#f)" d="M24.7142901,38.5000232 C24.7142901,37.9922101 24.2935307,37.5714507 23.7857176,37.5714507 C23.2779045,37.5714507 22.8571451,37.9922101 22.8571451,38.5000232 C22.8571451,39.0078364 23.2779045,39.4285958 23.7857176,39.4285958 C24.2935307,39.4285958 24.7142901,39.0078364 24.7142901,38.5000232 Z M41.4285958,30.1428704 C41.4285958,29.1562621 40.5435501,28.2857254 39.5714507,28.2857254 L34.4643018,28.2857254 C34.4643018,26.5881787 35.8571606,25.3549183 35.8571606,23.6428627 C35.8571606,21.945316 35.5234548,20.8571451 33.5357292,20.8571451 C32.6071567,21.8002266 33.0859519,24.0200953 31.6785842,25.5000077 C31.2723337,25.9207672 30.924119,26.3705445 30.5613953,26.8203218 C29.9084928,27.6618407 28.1819282,30.1428704 27.0357215,30.1428704 L26.5714352,30.1428704 L26.5714352,39.4285958 L27.0357215,39.4285958 C27.8482224,39.4285958 29.1830455,39.9509178 29.9665285,40.2265878 C31.5625126,40.7779277 33.2165324,41.2857409 34.928588,41.2857409 L36.6841705,41.2857409 C38.3236814,41.2857409 39.4698881,40.6328383 39.4698881,38.8627469 C39.4698881,38.5870769 39.4408702,38.3114069 39.3973434,38.0502459 C40.0067191,37.7165402 40.3404248,36.8895303 40.3404248,36.2221187 C40.3404248,35.873904 40.2533712,35.5256893 40.0792638,35.2210015 C40.572568,34.7567152 40.8482379,34.1763574 40.8482379,33.4944369 C40.8482379,33.0301507 40.6451127,32.3482302 40.3404248,32.0000155 C41.0223453,31.9855066 41.4285958,30.6797014 41.4285958,30.1428704 Z M43.2857409,30.1283615 C43.2857409,30.9698803 43.0390888,31.7968903 42.5748025,32.4933197 C42.6618562,32.8125165 42.705383,33.1607312 42.705383,33.4944369 C42.705383,34.2198842 42.5167667,34.9453315 42.1540431,35.5837251 C42.183061,35.7868504 42.1975699,36.0044846 42.1975699,36.2076098 C42.1975699,37.1361823 41.892882,38.0647549 41.3270332,38.7902022 C41.3560511,41.5323929 39.484397,43.1428859 36.800242,43.1428859 L34.928588,43.1428859 C32.8683177,43.1428859 30.9531369,42.5335102 29.037956,41.8660987 C28.6171966,41.7210092 27.441972,41.2857409 27.0357215,41.2857409 L22.8571451,41.2857409 C21.8270099,41.2857409 21,40.4587309 21,39.4285958 L21,30.1428704 C21,29.1127353 21.8270099,28.2857254 22.8571451,28.2857254 L26.8325962,28.2857254 C27.3984451,27.9084928 28.3850534,26.6026876 28.8203218,26.0368387 C29.313626,25.3984451 29.8214391,24.7745605 30.372779,24.1796937 C31.2433158,23.2511211 30.7790295,20.9587077 32.2299241,19.536831 C32.5781388,19.2031252 33.0424251,19 33.5357292,19 C35.0446596,19 36.4955542,19.536831 37.2064925,20.9441987 C37.6562699,21.8292444 37.7143056,22.6707633 37.7143056,23.6428627 C37.7143056,24.6584889 37.4531446,25.5290256 37.0178762,26.4285803 L39.5714507,26.4285803 C41.5736852,26.4285803 43.2857409,28.126127 43.2857409,30.1283615 Z"/>
  </g>
</svg>
