<?xml version="1.0" encoding="iso-8859-1"?>
<!-- Generator: Adobe Illustrator 16.0.0, SVG Export Plug-In . SVG Version: 6.00 Build 0)  -->
<!DOCTYPE svg PUBLIC "-//W3C//DTD SVG 1.1//EN" "http://www.w3.org/Graphics/SVG/1.1/DTD/svg11.dtd">
<svg xmlns="http://www.w3.org/2000/svg" xmlns:xlink="http://www.w3.org/1999/xlink" version="1.1" id="Capa_1" x="0px" y="0px" width="512px" height="512px" viewBox="0 0 98.167 98.167" style="enable-background:new 0 0 98.167 98.167;" xml:space="preserve">
<g>
	<g>
		<path d="M68.561,54.96h-0.375c0.979-3.675,2.046-7.66,2.223-8.365c2.602-10.539-3.762-21.207-14.184-23.778    c-10.417-2.572-21.011,3.912-23.61,14.45c-0.169,0.681-1.155,4.676-1.92,7.762c-0.17,0.69-0.06,1.419,0.308,2.027    c0.366,0.608,0.961,1.046,1.653,1.216l2,0.494c1.436,0.354,2.888-0.523,3.243-1.958c0.76-3.086,1.745-7.085,1.915-7.767    c1.61-6.52,8.167-10.531,14.614-8.939c6.451,1.588,10.384,8.191,8.777,14.711c-0.203,0.82-1.623,6.099-2.699,10.146H29.623h-0.006    c-5.085,0-9.208,4.168-9.208,9.311v24.586c0,5.144,4.123,9.312,9.208,9.312h38.941c5.082,0,9.203-4.168,9.203-9.312v-24.59    C77.76,59.126,73.64,54.96,68.561,54.96z M52.625,76.797v7.689c0,1.978-1.582,3.582-3.542,3.582c-1.952,0-3.538-1.604-3.538-3.582    v-7.689c-1.727-1.164-2.866-3.146-2.866-5.4c0-3.578,2.866-6.48,6.404-6.48c3.542,0,6.41,2.902,6.41,6.48    C55.493,73.65,54.356,75.632,52.625,76.797z" fill="#2f79c5"/>
		<path d="M77.008,14.234c-0.695-0.06-1.334-0.415-1.75-0.976c-3.79-5.102-9.856-8.246-16.309-8.246    c-0.396,0-0.793,0.012-1.189,0.035c-0.578,0.034-1.146-0.138-1.608-0.486C52.22,1.603,47.46,0,42.476,0    C33.546,0,25.618,5.166,21.9,12.992c-0.351,0.74-1.051,1.253-1.861,1.369C10.2,15.763,2.61,24.244,2.61,34.464    c0,10.395,7.856,18.978,17.94,20.155c2.281-2.178,5.319-3.555,8.677-3.653c-0.657-0.505-1.222-1.13-1.653-1.847    c-0.442-0.732-0.731-1.529-0.868-2.351h-3.792c-6.785,0-12.305-5.52-12.305-12.305s5.52-12.305,12.305-12.305    c0.343,0,0.68,0.027,1.015,0.055c1.955,0.151,3.726-1.117,4.202-3.014C29.786,12.605,35.685,8,42.475,8    c3.88,0,7.552,1.499,10.339,4.219c0.953,0.929,2.306,1.325,3.61,1.053c0.83-0.173,1.679-0.261,2.523-0.261    c4.75,0,8.993,2.671,11.071,6.97c0.729,1.512,2.328,2.411,3.999,2.239c0.416-0.042,0.831-0.063,1.234-0.063    c6.785,0,12.305,5.52,12.305,12.305c0,6.785-5.52,12.305-12.305,12.305h-0.789c-0.057,0.262-0.109,0.524-0.174,0.786    c-0.111,0.446-0.562,2.14-1.123,4.242c1.677,0.631,3.186,1.604,4.461,2.82c10.08-1.182,17.93-9.761,17.93-20.152    C95.559,23.859,87.386,15.126,77.008,14.234z" fill="#2f79c5"/>
	</g>
</g>
<g>
</g>
<g>
</g>
<g>
</g>
<g>
</g>
<g>
</g>
<g>
</g>
<g>
</g>
<g>
</g>
<g>
</g>
<g>
</g>
<g>
</g>
<g>
</g>
<g>
</g>
<g>
</g>
<g>
</g>
</svg>
